<?xml version="1.0" encoding="UTF-8"?>
<!-- Created with Inkscape (http://www.inkscape.org/) -->
<svg width="107.59mm" height="119.9mm" version="1.1" viewBox="0 0 107.59 119.9" xmlns="http://www.w3.org/2000/svg">
 <g transform="translate(-46.892 .26644)" stroke="#000000">
  <g fill="none">
   <path d="m47.148 119.65s-1.5622-82.037 53.539-82.037c55.101 0 53.539 82.037 53.539 82.037" stroke-width=".50263"/>
   <path d="m95.679 68.519a9.3014 11.281 0 01-9.3014 11.281 9.3014 11.281 0 01-9.3014-11.281 9.3014 11.281 0 019.3014-11.281 9.3014 11.281 0 019.3014 11.281z" stroke-linecap="round" stroke-width=".42289"/>
   <path d="m121.93 69.049a6.5749 9.4788 0 01-6.5749 9.4788 6.5749 9.4788 0 01-6.5749-9.4788 6.5749 9.4788 0 016.5749-9.4788 6.5749 9.4788 0 016.5749 9.4788z" stroke-linecap="round" stroke-width=".43"/>
  </g>
  <path d="m116.01 69.749a2.3355 3.1251 0 01-2.3355 3.1251 2.3355 3.1251 0 01-2.3355-3.1251 2.3355 3.1251 0 012.3355-3.1251 2.3355 3.1251 0 012.3355 3.1251z" fill="#000000" stroke-linecap="round" stroke-width="1.9085"/>
  <path d="m91.737 70.322a2.3482 3.1379 0 01-2.3482 3.1379 2.3482 3.1379 0 01-2.3482-3.1379 2.3482 3.1379 0 012.3482-3.1379 2.3482 3.1379 0 012.3482 3.1379z" fill="#000000" stroke-linecap="round" stroke-width="2.1831"/>
  <g fill="none">
   <path d="m101.99 37.697c-.59003-9.3603.64418-21.479 10.125-26.097 12.68-6.9193 11.761 20.106.89667 10.041-6.6608-11.024 13.906-19.958 23.221-1.3942" stroke-width=".26458px"/>
   <path d="m97.733 88.01s-.88168 21.436 4.5548 21.436c5.4365 0 4.873-21.284 4.873-21.284" stroke-width=".25387px"/>
   <path transform="matrix(.26458 0 0 .26458 46.892 -.26644)" d="m223.75 391.57c10.896-3.5666 30.06 4.8112 39.301 6.4516 33.774 5.9951 28.562-11.237 41.903-6.5585 7.461 2.6165 16.011 17.501 16.011 17.501 7.4874 8.1844-18.831 18.341-40.824 19.893-19.241 1.3579-44.535 4.6032-72.172 4.6032-25.714 0-48.837-14.74-66.807-9.7113-22.829 6.3886-31.673-21.77-31.673-32.789 0-7.9322 9.7996 7.2255 22.149 8.3862 14.637 1.3758 18.612-11.785 32.913-10.319 9.6287.98698 19.785-3.0287 30.594 1.3601" stroke-linecap="round" stroke-width="1.3795"/>
   <g>
    <path d="m74.802 53.569s4.3713-4.8248 11.047-4.9087c6.9133-.08683 10.641 4.6427 10.641 4.6427" stroke-width=".26458px"/>
    <path d="m108.93 54.363s1.9586-3.9256 7.139-3.9677c5.1804-.04213 7.6738 3.9677 7.6738 3.9677" stroke-width=".26458px"/>
    <path transform="matrix(.26458 0 0 .26458 46.892 -.26644)" d="m222.37 397.43c33.624 4.5409 40.363 31.801 40.363 31.801" stroke-width=".75591"/>
    <path transform="matrix(.26458 0 0 .26458 46.892 -.26644)" d="m178.74 427.73s-2.0718-22.131 18.292-28.915" stroke-width=".75591"/>
   </g>
  </g>
 </g>
</svg>
