<?xml version="1.0" encoding="UTF-8"?>
<!-- Created with Inkscape (http://www.inkscape.org/) -->
<svg width="107.59mm" height="119.9mm" version="1.1" viewBox="0 0 107.59 119.9" xmlns="http://www.w3.org/2000/svg">
 <g transform="translate(-46.892 .26644)">
  <g fill="none" stroke="#000000">
   <path d="m47.148 119.65s-5.5309-82.037 53.539-82.037c59.07 0 53.539 82.037 53.539 82.037" stroke-width=".50263"/>
   <path d="m95.679 68.519a9.3014 11.281 0 01-9.3014 11.281 9.3014 11.281 0 01-9.3014-11.281 9.3014 11.281 0 019.3014-11.281 9.3014 11.281 0 019.3014 11.281z" stroke-linecap="round" stroke-width=".42289"/>
   <path d="m121.93 69.049a6.5749 9.4788 0 01-6.5749 9.4788 6.5749 9.4788 0 01-6.5749-9.4788 6.5749 9.4788 0 016.5749-9.4788 6.5749 9.4788 0 016.5749 9.4788z" stroke-linecap="round" stroke-width=".43"/>
  </g>
  <g stroke="#000000">
   <path d="m116.25 71.565a3.1408 2.9959 0 01-3.1408 2.9959 3.1408 2.9959 0 01-3.1408-2.9959 3.1408 2.9959 0 013.1408-2.9959 3.1408 2.9959 0 013.1408 2.9959z" fill="#000000" stroke-linecap="round" stroke-width="2.167"/>
   <path d="m94.022 72.225a3.1408 2.9959 0 01-3.1408 2.9959 3.1408 2.9959 0 01-3.1408-2.9959 3.1408 2.9959 0 013.1408-2.9959 3.1408 2.9959 0 013.1408 2.9959z" fill="#000000" stroke-linecap="round" stroke-width="2.467"/>
   <path d="m101.99 37.697c-.59003-9.3603.64418-21.479 10.125-26.097 12.68-6.9193 11.761 20.106.89667 10.041-6.6608-11.024 7.0763-21.266 17.327-21.599l1.0211-.17747" fill="none" stroke-width=".26458px"/>
   <path d="m95.362 88.035s-1.1035 12.906 5.7008 12.906c6.8043 0 6.0991-12.815 6.0991-12.815" fill="none" stroke-width=".22039px"/>
  </g>
  <path d="m118.75 86.14c-.37466-.06838-.74009.14904-.81629.48567 0 0-2.0136 9.3772-13.426 12.857-.5236.60581-1.5204 1.1059-1.3172 1.056 14.161-2.6507 16.1-13.665 16.1-13.665.0761-.33665-.16586-.66501-.54051-.73347z" color="#000000" fill="#000000" stroke-linecap="round" stroke-width=".2981" style="-inkscape-stroke:none"/>
  <path d="m83.62 87.208c-.37714.0851-.60594.4281-.5111.76617 0 0 4.1706 10.758 16.123 12.691-.81086-.40938-1.2015-.8972-1.2383-1.0808-10.347-2.9006-13.519-11.918-13.519-11.918-.094939-.33806-.47759-.54315-.85476-.45814z" color="#000000" fill="#000000" stroke-linecap="round" stroke-width=".30288" style="-inkscape-stroke:none"/>
 </g>
</svg>
