<?xml version="1.0" encoding="UTF-8"?>
<!-- Created with Inkscape (http://www.inkscape.org/) -->
<svg width="107.59mm" height="119.9mm" version="1.1" viewBox="0 0 107.59 119.9" xmlns="http://www.w3.org/2000/svg">
 <g transform="translate(-46.892 .26644)">
  <g>
   <g fill="none" stroke="#000000">
    <path d="m47.148 119.65s-5.5309-82.037 53.539-82.037c59.07 0 53.539 82.037 53.539 82.037" stroke-width=".50263"/>
    <path d="m95.679 68.519a9.3014 11.281 0 01-9.3014 11.281 9.3014 11.281 0 01-9.3014-11.281 9.3014 11.281 0 019.3014-11.281 9.3014 11.281 0 019.3014 11.281z" stroke-linecap="round" stroke-width=".42289"/>
    <path d="m121.93 69.049a6.5749 9.4788 0 01-6.5749 9.4788 6.5749 9.4788 0 01-6.5749-9.4788 6.5749 9.4788 0 016.5749-9.4788 6.5749 9.4788 0 016.5749 9.4788z" stroke-linecap="round" stroke-width=".43"/>
   </g>
   <g stroke="#000000">
    <path d="m116.25 71.565a3.1408 2.9959 0 01-3.1408 2.9959 3.1408 2.9959 0 01-3.1408-2.9959 3.1408 2.9959 0 013.1408-2.9959 3.1408 2.9959 0 013.1408 2.9959z" fill="#000000" stroke-linecap="round" stroke-width="2.167"/>
    <path d="m94.022 72.225a3.1408 2.9959 0 01-3.1408 2.9959 3.1408 2.9959 0 01-3.1408-2.9959 3.1408 2.9959 0 013.1408-2.9959 3.1408 2.9959 0 013.1408 2.9959z" fill="#000000" stroke-linecap="round" stroke-width="2.467"/>
    <path d="m101.99 37.697c-.59003-9.3603.64418-21.479 10.125-26.097 12.68-6.9193 11.761 20.106.89667 10.041-6.6608-11.024 7.0763-21.266 17.327-21.599l1.0211-.17747" fill="none" stroke-width=".26458px"/>
    <path d="m95.392 88.016s-1.0979 24.846 5.6717 24.846c6.7696 0 6.068-24.671 6.068-24.671" fill="none" stroke-width=".305px"/>
   </g>
   <path transform="scale(.26458)" d="m449.16 325.56c-1.1914-.24202-2.3534.52743-2.5957 1.7188 0 0-6.8253 35.289-42.693 45.5.75219 2.3506-1.1539 4.4106-.5076 4.2344 38.297-10.902 47.515-48.857 47.515-48.857.24203-1.1914-.52742-2.3534-1.7188-2.5957z" color="#000000" fill="#000000" stroke-linecap="round" style="-inkscape-stroke:none"/>
   <path transform="scale(.26458)" d="m315.7 329.6c-1.1789.29677-1.8941 1.4929-1.5976 2.6719 0 0 9.5786 34.623 46.867 44.951 1.8514-.40825.14145-4.3115-.33985-4.4628-35.05-9.7081-42.258-41.562-42.258-41.562-.29677-1.1789-1.4929-1.8941-2.6719-1.5977z" color="#000000" fill="#000000" stroke-linecap="round" style="-inkscape-stroke:none"/>
  </g>
 </g>
</svg>
