<?xml version="1.0" encoding="UTF-8"?>
<!-- Created with Inkscape (http://www.inkscape.org/) -->
<svg width="107.86mm" height="76.588mm" version="1.1" viewBox="0 0 107.86 76.588" xmlns="http://www.w3.org/2000/svg">
 <g transform="translate(-46.759 -6.0483)" fill="none" stroke="#000000">
  <g>
   <path d="m47.148 82.606s-5.5309-44.997 53.539-44.997c59.07 0 53.539 44.997 53.539 44.997" stroke-width=".50263"/>
   <path d="m95.724 70.95a7.3807 8.8943 0 01-7.3807 8.8944 7.3807 8.8943 0 01-7.3807-8.8944 7.3807 8.8943 0 017.3807-8.8943 7.3807 8.8943 0 017.3807 8.8943z" stroke-linecap="round" stroke-width=".33449"/>
   <path d="m121.95 70.734a6.5944 7.8134 0 01-6.5944 7.8134 6.5944 7.8134 0 01-6.5944-7.8134 6.5944 7.8134 0 016.5944-7.8134 6.5944 7.8134 0 016.5944 7.8134z" stroke-linecap="round" stroke-width=".39098"/>
  </g>
  <g stroke-width=".26458px">
   <path d="m101.99 37.697c-.59003-9.3603.64418-21.479 10.125-26.097 12.68-6.9193 11.761 20.106.89667 10.041-6.6608-11.024 3.1464-20.613 10.308-12.341"/>
   <path d="m81.276 70.997c8.6521 5.5197 14.512.56731 14.557.52758"/>
   <path d="m109.06 70.997c3.7513 2.9144 7.8017 4.3489 12.968.26161"/>
  </g>
  <g stroke-width=".265">
   <path d="m63.289 29.062h11.108l-10.317 7.9354h11.379"/>
   <path d="m73.343 14.51h11.108l-10.317 7.9354h11.379"/>
   <path d="m58.394 6.572h11.108l-10.317 7.9354h11.379"/>
  </g>
 </g>
</svg>
